<svg width="114" height="34" viewBox="0 0 114 34" fill="none" xmlns="http://www.w3.org/2000/svg">
<path d="M13.0101 0L19.3876 1.80159e-07L22.5764 5.52308L19.3876 11.0462H13.0101L9.82135 5.52308L13.0101 0Z" fill="#444CE7"/>
<path d="M3.18875 5.61215H9.56626L12.755 11.1352L9.56626 16.6583H3.18875L0 11.1352L3.18875 5.61215Z" fill="#444CE7"/>
<path d="M3.18875 16.9641H9.56626L12.755 22.4872L9.56626 28.0103H3.18875L0 22.4872L3.18875 16.9641Z" fill="#444CE7"/>
<path d="M13.0101 22.5763H19.3876L22.5764 28.0993L19.3876 33.6224H13.0101L9.82135 28.0993L13.0101 22.5763Z" fill="#444CE7"/>
<path d="M46.4614 14.1734H43.8051C43.7294 13.7378 43.5897 13.3519 43.3861 13.0157C43.1825 12.6748 42.9292 12.386 42.6261 12.1492C42.3231 11.9125 41.9775 11.7349 41.5892 11.6166C41.2057 11.4934 40.7914 11.4319 40.3463 11.4319C39.5556 11.4319 38.8548 11.6308 38.244 12.0285C37.6332 12.4215 37.155 12.9991 36.8094 13.7614C36.4637 14.519 36.2909 15.4447 36.2909 16.5384C36.2909 17.6511 36.4637 18.5886 36.8094 19.3509C37.1597 20.1085 37.638 20.6814 38.244 21.0697C38.8548 21.4532 39.5532 21.645 40.3392 21.645C40.7748 21.645 41.182 21.5881 41.5608 21.4745C41.9443 21.3561 42.2876 21.1833 42.5906 20.956C42.8984 20.7288 43.1564 20.4494 43.3648 20.118C43.5778 19.7865 43.7246 19.4077 43.8051 18.9816L46.4614 18.9958C46.3619 19.6871 46.1465 20.3358 45.8151 20.9418C45.4883 21.5479 45.0598 22.0829 44.5295 22.547C43.9992 23.0062 43.379 23.3661 42.6687 23.6265C41.9585 23.8822 41.1702 24.01 40.3037 24.01C39.0253 24.01 37.8842 23.7141 36.8804 23.1222C35.8766 22.5304 35.0859 21.6757 34.5082 20.5583C33.9306 19.4409 33.6418 18.1009 33.6418 16.5384C33.6418 14.9712 33.933 13.6312 34.5153 12.5185C35.0977 11.4011 35.8908 10.5465 36.8946 9.95462C37.8984 9.36277 39.0347 9.06684 40.3037 9.06684C41.1133 9.06684 41.8662 9.18047 42.5622 9.40775C43.2582 9.63502 43.8785 9.96883 44.423 10.4092C44.9675 10.8448 45.415 11.3798 45.7653 12.0143C46.1205 12.644 46.3525 13.3637 46.4614 14.1734ZM48.7607 23.8112V12.9021H51.2536V14.7202H51.3673C51.5661 14.0905 51.907 13.6052 52.39 13.2643C52.8777 12.9186 53.434 12.7458 54.059 12.7458C54.2011 12.7458 54.3597 12.7529 54.5349 12.7671C54.7148 12.7766 54.8639 12.7932 54.9823 12.8168V15.1819C54.8734 15.144 54.7006 15.1109 54.4638 15.0825C54.2318 15.0493 54.0069 15.0327 53.7891 15.0327C53.3204 15.0327 52.899 15.1345 52.5249 15.3381C52.1556 15.537 51.8644 15.814 51.6513 16.1691C51.4383 16.5242 51.3317 16.9338 51.3317 17.3978V23.8112H48.7607ZM61.0707 24.0242C59.977 24.0242 59.0324 23.797 58.2369 23.3424C57.4462 22.8831 56.8378 22.2345 56.4116 21.3964C55.9855 20.5536 55.7724 19.5616 55.7724 18.4205C55.7724 17.2984 55.9855 16.3135 56.4116 15.466C56.8425 14.6137 57.4438 13.9508 58.2156 13.4773C58.9874 12.9991 59.8941 12.76 60.9358 12.76C61.6081 12.76 62.2426 12.8689 62.8392 13.0867C63.4405 13.2998 63.9708 13.6312 64.4301 14.081C64.8941 14.5309 65.2587 15.1038 65.5239 15.7998C65.789 16.4911 65.9216 17.3149 65.9216 18.2714V19.0597H56.9798V17.3268H63.4571C63.4524 16.8344 63.3458 16.3964 63.1375 16.0129C62.9292 15.6246 62.638 15.3192 62.2639 15.0967C61.8946 14.8741 61.4637 14.7629 60.9713 14.7629C60.4457 14.7629 59.9841 14.8907 59.5864 15.1464C59.1886 15.3973 58.8785 15.7288 58.656 16.1407C58.4382 16.5479 58.3269 16.9953 58.3222 17.483V18.9958C58.3222 19.6303 58.4382 20.1748 58.6702 20.6293C58.9022 21.0791 59.2265 21.4248 59.6432 21.6663C60.0598 21.903 60.5475 22.0214 61.1062 22.0214C61.4803 22.0214 61.8188 21.9693 62.1219 21.8651C62.4249 21.7562 62.6877 21.5976 62.9102 21.3893C63.1328 21.1809 63.3008 20.9229 63.4145 20.6151L65.8151 20.885C65.6635 21.5195 65.3747 22.0735 64.9486 22.547C64.5272 23.0157 63.9874 23.3803 63.3293 23.6407C62.6711 23.8964 61.9183 24.0242 61.0707 24.0242ZM76.7188 15.7856L74.3751 16.0413C74.3088 15.8045 74.1928 15.582 74.0271 15.3737C73.8661 15.1653 73.6483 14.9972 73.3736 14.8694C73.099 14.7416 72.7629 14.6776 72.3651 14.6776C71.8301 14.6776 71.3803 14.7936 71.0157 15.0256C70.6558 15.2577 70.4783 15.5583 70.483 15.9276C70.4783 16.2449 70.5943 16.5029 70.831 16.7018C71.0725 16.9006 71.4702 17.064 72.0242 17.1918L73.885 17.5896C74.9172 17.8121 75.6843 18.1649 76.1861 18.6478C76.6928 19.1308 76.9485 19.7629 76.9532 20.5441C76.9485 21.2307 76.7472 21.8367 76.3495 22.3623C75.9565 22.8831 75.4096 23.2903 74.7089 23.5839C74.0081 23.8774 73.2032 24.0242 72.2941 24.0242C70.9589 24.0242 69.8841 23.7449 69.0697 23.1862C68.2553 22.6227 67.77 21.8391 67.6137 20.8353L70.1208 20.5938C70.2344 21.0863 70.4759 21.4579 70.8452 21.7089C71.2146 21.9598 71.6951 22.0853 72.287 22.0853C72.8978 22.0853 73.3879 21.9598 73.7572 21.7089C74.1312 21.4579 74.3182 21.1478 74.3182 20.7785C74.3182 20.466 74.1975 20.2079 73.956 20.0043C73.7193 19.8007 73.35 19.6445 72.8481 19.5356L70.9873 19.145C69.9409 18.9272 69.1667 18.5602 68.6648 18.0441C68.1629 17.5233 67.9144 16.8651 67.9191 16.0697C67.9144 15.3973 68.0967 14.8149 68.466 14.3225C68.84 13.8254 69.3585 13.4418 70.0214 13.172C70.689 12.8973 71.4584 12.76 72.3296 12.76C73.608 12.76 74.6142 13.0323 75.3481 13.5768C76.0867 14.1213 76.5436 14.8576 76.7188 15.7856ZM79.0732 23.8112V12.9021H81.6442V23.8112H79.0732ZM80.3658 11.3538C79.9586 11.3538 79.6083 11.2188 79.3147 10.9489C79.0211 10.6743 78.8744 10.3452 78.8744 9.96172C78.8744 9.57347 79.0211 9.2444 79.3147 8.97451C79.6083 8.69989 79.9586 8.56258 80.3658 8.56258C80.7778 8.56258 81.1281 8.69989 81.417 8.97451C81.7105 9.2444 81.8573 9.57347 81.8573 9.96172C81.8573 10.3452 81.7105 10.6743 81.417 10.9489C81.1281 11.2188 80.7778 11.3538 80.3658 11.3538ZM91.2412 19.2231V12.9021H93.8122V23.8112H91.3193V21.8722H91.2057C90.9595 22.483 90.5546 22.9826 89.9912 23.3708C89.4325 23.7591 88.7436 23.9532 87.9244 23.9532C87.2095 23.9532 86.5774 23.7946 86.0281 23.4774C85.4836 23.1554 85.0575 22.689 84.7497 22.0782C84.4419 21.4627 84.2881 20.7193 84.2881 19.8481V12.9021H86.8591V19.4504C86.8591 20.1416 87.0485 20.6909 87.4273 21.0981C87.8061 21.5053 88.3032 21.7089 88.9187 21.7089C89.2975 21.7089 89.6645 21.6166 90.0196 21.4319C90.3747 21.2472 90.6659 20.9726 90.8932 20.608C91.1252 20.2387 91.2412 19.7771 91.2412 19.2231ZM96.456 23.8112V12.9021H98.9134V14.7558H99.0413C99.2685 14.1308 99.645 13.6431 100.171 13.2927C100.696 12.9376 101.323 12.76 102.053 12.76C102.791 12.76 103.414 12.9399 103.921 13.2998C104.432 13.6549 104.792 14.1402 105 14.7558H105.114C105.355 14.1497 105.762 13.6667 106.335 13.3069C106.913 12.9423 107.597 12.76 108.388 12.76C109.392 12.76 110.211 13.0773 110.845 13.7117C111.48 14.3462 111.797 15.2719 111.797 16.4887V23.8112H109.219V16.8864C109.219 16.2094 109.039 15.7146 108.679 15.4021C108.319 15.0848 107.879 14.9262 107.358 14.9262C106.738 14.9262 106.252 15.1203 105.902 15.5086C105.556 15.8921 105.384 16.3916 105.384 17.0072V23.8112H102.862V16.7799C102.862 16.2165 102.692 15.7666 102.351 15.4305C102.015 15.0943 101.574 14.9262 101.03 14.9262C100.661 14.9262 100.324 15.0209 100.021 15.2103C99.7183 15.395 99.4769 15.6577 99.2969 15.9987C99.117 16.3348 99.0271 16.7278 99.0271 17.1776V23.8112H96.456Z" fill="black"/>
</svg>
